<svg xmlns="http://www.w3.org/2000/svg" version="1.1" xmlns:xlink="http://www.w3.org/1999/xlink" width="200" height="200"><svg xmlns="http://www.w3.org/2000/svg" version="1.1" xmlns:xlink="http://www.w3.org/1999/xlink" viewBox="0 0 200 200"><rect width="200" height="200" fill="url('#gradient')"></rect><defs><linearGradient id="SvgjsLinearGradient1001" gradientTransform="rotate(360 0.5 0.5)"><stop offset="0%" stop-color="#e80c0c"></stop><stop offset="100%" stop-color="#e34242"></stop></linearGradient></defs><g><g fill="#ffffff" transform="matrix(1.6210141776115508,0,0,1.6210141776115508,7.2598651828066565,108.69795126600184)" stroke="#000000" stroke-width="0.25"><path d="M8.87 0L6.36-5.02L4.50-5.02L4.50 0L1.07 0L1.07-14.22L6.67-14.22Q9.20-14.22 10.63-13.10Q12.05-11.97 12.05-9.92L12.05-9.92Q12.05-8.44 11.45-7.46Q10.85-6.48 9.57-5.88L9.57-5.88L12.54-0.15L12.54 0L8.87 0ZM4.50-11.57L4.50-7.67L6.67-7.67Q7.65-7.67 8.14-8.18Q8.63-8.69 8.63-9.61Q8.63-10.53 8.13-11.05Q7.64-11.57 6.67-11.57L6.67-11.57L4.50-11.57ZM23.21 0L19.92 0Q19.75-0.32 19.61-0.95L19.61-0.95Q18.70 0.20 17.07 0.20L17.07 0.20Q15.58 0.20 14.53-0.71Q13.49-1.61 13.49-2.98L13.49-2.98Q13.49-4.70 14.76-5.58Q16.03-6.46 18.45-6.46L18.45-6.46L19.46-6.46L19.46-7.01Q19.46-8.47 18.20-8.47L18.20-8.47Q17.03-8.47 17.03-7.31L17.03-7.31L13.74-7.31Q13.74-8.85 15.04-9.80Q16.35-10.76 18.37-10.76Q20.39-10.76 21.56-9.78Q22.73-8.79 22.76-7.07L22.76-7.07L22.76-2.39Q22.78-0.94 23.21-0.17L23.21-0.17L23.21 0ZM17.86-2.15L17.86-2.15Q18.48-2.15 18.88-2.41Q19.29-2.68 19.46-3.01L19.46-3.01L19.46-4.70L18.51-4.70Q16.79-4.70 16.79-3.15L16.79-3.15Q16.79-2.71 17.09-2.43Q17.39-2.15 17.86-2.15ZM24.52-10.57L27.61-10.57L27.71-9.33Q28.81-10.76 30.73-10.76L30.73-10.76Q32.38-10.76 33.20-9.78Q34.01-8.79 34.04-6.81L34.04-6.81L34.04 0L30.74 0L30.74-6.67Q30.74-7.47 30.42-7.85Q30.10-8.22 29.25-8.22L29.25-8.22Q28.28-8.22 27.81-7.46L27.81-7.46L27.81 0L24.52 0L24.52-10.57ZM35.48-5.24L35.48-5.36Q35.48-6.96 36.01-8.19Q36.53-9.42 37.52-10.09Q38.51-10.76 39.81-10.76L39.81-10.76Q41.46-10.76 42.39-9.65L42.39-9.65L42.51-10.57L45.50-10.57L45.50-0.40Q45.50 1.00 44.85 2.03Q44.20 3.06 42.97 3.61Q41.74 4.16 40.12 4.16L40.12 4.16Q38.96 4.16 37.87 3.72Q36.78 3.28 36.20 2.58L36.20 2.58L37.58 0.64Q38.50 1.73 40 1.73L40 1.73Q42.19 1.73 42.19-0.52L42.19-0.52L42.19-0.85Q41.24 0.20 39.79 0.20L39.79 0.20Q37.86 0.20 36.67-1.28Q35.48-2.76 35.48-5.24L35.48-5.24ZM38.78-5.16L38.78-5.16Q38.78-3.86 39.27-3.10Q39.76-2.34 40.63-2.34L40.63-2.34Q41.70-2.34 42.19-3.06L42.19-3.06L42.19-7.50Q41.71-8.22 40.65-8.22L40.65-8.22Q39.78-8.22 39.28-7.44Q38.78-6.65 38.78-5.16ZM53.82-10.64L53.76-7.59L52.68-7.67Q51.12-7.67 50.68-6.69L50.68-6.69L50.68 0L47.39 0L47.39-10.57L50.48-10.57L50.59-9.21Q51.42-10.76 52.90-10.76L52.90-10.76Q53.43-10.76 53.82-10.64L53.82-10.64ZM63.90 0L60.61 0Q60.43-0.32 60.29-0.95L60.29-0.95Q59.38 0.20 57.75 0.20L57.75 0.20Q56.26 0.20 55.21-0.71Q54.17-1.61 54.17-2.98L54.17-2.98Q54.17-4.70 55.44-5.58Q56.71-6.46 59.13-6.46L59.13-6.46L60.15-6.46L60.15-7.01Q60.15-8.47 58.89-8.47L58.89-8.47Q57.71-8.47 57.71-7.31L57.71-7.31L54.42-7.31Q54.42-8.85 55.73-9.80Q57.03-10.76 59.05-10.76Q61.07-10.76 62.25-9.78Q63.42-8.79 63.45-7.07L63.45-7.07L63.45-2.39Q63.47-0.94 63.90-0.17L63.90-0.17L63.90 0ZM58.54-2.15L58.54-2.15Q59.16-2.15 59.57-2.41Q59.97-2.68 60.15-3.01L60.15-3.01L60.15-4.70L59.19-4.70Q57.47-4.70 57.47-3.15L57.47-3.15Q57.47-2.71 57.77-2.43Q58.08-2.15 58.54-2.15ZM65.81-13.19L69.10-13.19L69.10-10.57L70.84-10.57L70.84-8.28L69.10-8.28L69.10-3.45Q69.10-2.85 69.32-2.62Q69.53-2.38 70.17-2.38L70.17-2.38Q70.65-2.38 70.99-2.44L70.99-2.44L70.99-0.09Q70.10 0.20 69.13 0.20L69.13 0.20Q67.43 0.20 66.62-0.61Q65.81-1.41 65.81-3.04L65.81-3.04L65.81-8.28L64.46-8.28L64.46-10.57L65.81-10.57L65.81-13.19ZM75.35-15L75.35-9.43Q76.41-10.76 78.05-10.76L78.05-10.76Q79.79-10.76 80.68-9.73Q81.57-8.69 81.59-6.67L81.59-6.67L81.59 0L78.29 0L78.29-6.59Q78.29-7.43 77.95-7.83Q77.61-8.22 76.79-8.22L76.79-8.22Q75.77-8.22 75.35-7.58L75.35-7.58L75.35 0L72.06 0L72.06-15L75.35-15ZM92.67 0L89.38 0Q89.20-0.32 89.06-0.95L89.06-0.95Q88.15 0.20 86.52 0.20L86.52 0.20Q85.03 0.20 83.98-0.71Q82.94-1.61 82.94-2.98L82.94-2.98Q82.94-4.70 84.21-5.58Q85.48-6.46 87.90-6.46L87.90-6.46L88.92-6.46L88.92-7.01Q88.92-8.47 87.66-8.47L87.66-8.47Q86.48-8.47 86.48-7.31L86.48-7.31L83.19-7.31Q83.19-8.85 84.50-9.80Q85.80-10.76 87.82-10.76Q89.84-10.76 91.02-9.78Q92.19-8.79 92.22-7.07L92.22-7.07L92.22-2.39Q92.24-0.94 92.67-0.17L92.67-0.17L92.67 0ZM87.31-2.15L87.31-2.15Q87.93-2.15 88.33-2.41Q88.74-2.68 88.92-3.01L88.92-3.01L88.92-4.70L87.96-4.70Q86.24-4.70 86.24-3.15L86.24-3.15Q86.24-2.71 86.54-2.43Q86.85-2.15 87.31-2.15ZM96.45-10.57L98.12-4.61L99.87-10.57L103.40-10.57L99.09 1.77L98.91 2.22Q97.99 4.27 95.66 4.27L95.66 4.27Q95.02 4.27 94.31 4.07L94.31 4.07L94.31 1.72L94.74 1.72Q95.43 1.72 95.80 1.52Q96.16 1.32 96.34 0.80L96.34 0.80L96.60 0.10L92.93-10.57L96.45-10.57ZM113.35 0L110.06 0Q109.88-0.32 109.75-0.95L109.75-0.95Q108.84 0.20 107.21 0.20L107.21 0.20Q105.71 0.20 104.67-0.71Q103.62-1.61 103.62-2.98L103.62-2.98Q103.62-4.70 104.89-5.58Q106.16-6.46 108.58-6.46L108.58-6.46L109.60-6.46L109.60-7.01Q109.60-8.47 108.34-8.47L108.34-8.47Q107.17-8.47 107.17-7.31L107.17-7.31L103.88-7.31Q103.88-8.85 105.18-9.80Q106.48-10.76 108.51-10.76Q110.53-10.76 111.70-9.78Q112.87-8.79 112.90-7.07L112.90-7.07L112.90-2.39Q112.92-0.94 113.35-0.17L113.35-0.17L113.35 0ZM108.00-2.15L108.00-2.15Q108.61-2.15 109.02-2.41Q109.42-2.68 109.60-3.01L109.60-3.01L109.60-4.70L108.64-4.70Q106.92-4.70 106.92-3.15L106.92-3.15Q106.92-2.71 107.23-2.43Q107.53-2.15 108.00-2.15Z"></path></g></g></svg><style>@media (prefers-color-scheme: light) { :root { filter: none; } }
@media (prefers-color-scheme: dark) { :root { filter: none; } }
</style></svg>